# xmcd
#
# Track frame offsets:
#	150
#	25705
#	42773
#	80171
#	111467
#	143154
#	181840
#	217610
#	241180
#	266911
#	302254
#	322447
#
# Disc length: 4785 seconds
#
# Revision: 1
# Processed by: cddbd v1.5.2PL0 Copyright (c) Steve Scherf et al.
# Submitted via: audiograbber 1.83.01
#
DISCID=a212af0c
DTITLE=Grateful Dead - 72-07-22 Paramount Northwest Theatre, Seattle WA
DYEAR=1900
DGENRE=
TTITLE0=Bird Song
TTITLE1=BIODTL
TTITLE2=Sugaree
TTITLE3=Black Throated Wind
TTITLE4=Big Railroad Blues
TTITLE5=Cumberland Blues
TTITLE6=Playing In The Band
TTITLE7=Brown Eyed Women
TTITLE8=El Paso
TTITLE9=Tennessee Jed
TTITLE10=China Cat Sunflower
TTITLE11=I Know You Rider
EXTD=
EXTT0=
EXTT1=
EXTT2=
EXTT3=
EXTT4=
EXTT5=
EXTT6=
EXTT7=
EXTT8=
EXTT9=
EXTT10=
EXTT11=
PLAYORDER=
